<svg xmlns="http://www.w3.org/2000/svg" width="576" height="384" fill="none" viewBox="0 0 576 384"><path fill="#EDDDD1" d="M300.394 295.249v13.865h-8.388v-12.381l-5.592-7.736-5.942 6.918.204 13.599h-7.136v-17.443h-12.009v9.468h-9.923v-14.312l-12.805 3.302v21.269h-6.845v-6.509l-5.019-6.957-4.796 6.747-4.32-4.273c-1.457-1.437-3.962-.361-3.864 1.656l.427 9.545h-4.107v-7.775l-11.825-4.006v10.201h-3.728v-4.92h-7.971v-10.268h-12.621v13.866h-8.388v-12.381l-5.592-7.737-5.942 6.919.204 13.598h-7.136v-17.443h-12.009v9.469h-9.923v-14.313l-12.805 3.302v21.269h-6.845v-6.509l-5.019-6.956-4.796 6.747-4.32-4.273c-1.457-1.437-3.962-.362-3.864 1.656l.427 9.544h-4.107v-7.774l-11.825-4.007v10.202h-3.728v-4.92c-4.68 0-8.466 3.711-8.466 8.298v12.552h253.044V295.23h-12.621z"/><path fill="#EDDDD1" d="M311.344 302.005v12.016h7.524v-10.729l5.015-6.705 5.329 5.995-.183 11.786h6.401V299.25h10.771v8.207h8.899v-12.404l11.486 2.861v18.433h6.139v-5.641l4.502-6.029 4.301 5.848 3.875-3.703c1.306-1.246 3.553-.314 3.466 1.435l-.383 8.272h3.683v-6.738l10.606-3.473v8.842h3.344v-4.264h7.149v-8.899h11.32v12.016h7.523v-10.73l5.016-6.705 5.329 5.996-.183 11.786h6.4v-15.118h10.771v8.206h8.9v-12.404l11.485 2.862v18.433h6.139v-5.641l4.502-6.029 4.302 5.847 3.875-3.703c1.306-1.245 3.552-.313 3.465 1.435l-.383 8.272h3.683v-6.738l10.606-3.472v8.841h3.344v-4.263c4.197 0 7.593 3.216 7.593 7.191v10.878H299.998v-26.968h11.32z"/><path fill="#FFAE79" d="M448.689 241.698a3.8 3.8 0 0 0-3.682-4.042c-2.157-.076-4.006 1.615-4.131 3.778a3.805 3.805 0 0 0 3.683 4.043c2.156.075 4.006-1.615 4.13-3.779"/><path fill="#D5EADA" d="M80.698 205.999c17.192 0 31.129-13.937 31.129-31.13S97.89 143.74 80.697 143.74s-31.129 13.937-31.129 31.129c0 17.193 13.937 31.13 31.13 31.13"/><path fill="#fff" d="M32.414 98.866c1.137.136 10.287 1.04 13.719-5.732 3.665-7.21 4.975-17.906 4.975-17.906s-1.26 10.715.598 18.575c1.72 7.377 10.836 8.678 11.973 8.814l-.02.166c-1.137-.136-10.287-1.039-13.718 5.732-3.666 7.211-4.975 17.906-4.975 17.906s1.26-10.714-.599-18.574c-1.72-7.377-10.836-8.678-11.973-8.815zM2.053 164.719c.755.09 6.881.683 9.146-3.817 2.434-4.83 3.326-11.945 3.326-11.945s-.844 7.147.406 12.393c1.159 4.936 7.23 5.781 7.983 5.872l-.012.102c-.754-.09-6.881-.683-9.145 3.817-2.434 4.83-3.327 11.945-3.327 11.945s.845-7.147-.406-12.393c-1.158-4.936-7.229-5.781-7.983-5.872z"/><path fill="#FDDC8E" d="m461.756 88.616 16.388-38.79c8.639 3.592 15.784 9.939 20.29 18.075 4.583 8.02 6.398 17.56 4.931 26.74l-41.622-6.025z"/><g opacity=".7" style="mix-blend-mode:multiply"><path fill="#ECD8D1" d="m120.641 171.045-26.477-7.405c-3.316-.87-6.758 1.044-7.628 4.359l-7.404 26.478c-.87 3.316 1.043 6.758 4.36 7.628l26.477 7.404c3.316.87 6.757-1.044 7.627-4.359l7.405-26.478c.87-3.316-1.044-6.757-4.36-7.627"/><path fill="#F3E6DF" d="M109.128 199.059c6.863-4.003 9.261-12.674 5.336-19.634-4.002-6.864-12.674-9.261-19.634-5.336-6.863 4.002-9.26 12.673-5.336 19.633 4.002 6.864 12.673 9.261 19.634 5.337"/><path fill="#F3E6DF" d="M98.124 200.413c5.529 1.509 11.668-3.393 13.833-10.962 2.069-7.646-.56-15.022-6.09-16.53s-11.668 3.393-13.833 10.962c-2.07 7.647.56 15.022 6.09 16.53"/><path fill="#F3E6DF" d="M98.128 200.413c2.388.619 6.032-4.978 8.101-12.625s1.924-14.326-.464-14.945-6.032 4.978-8.101 12.625c-2.069 7.646-1.924 14.326.464 14.945"/><path fill="#F3E6DF" d="M114.74 180.297c-3.151 1.344-7.144 1.537-11.281.493-4.06-1.141-7.356-3.442-9.367-6.158M89.143 192.96c3.151-1.344 7.144-1.537 11.281-.493 4.06 1.141 7.357 3.442 9.367 6.158"/></g><path fill="#fff" d="m120.585 169.725-26.86-7.512c-3.363-.882-6.854 1.059-7.737 4.423l-7.512 26.86c-.882 3.363 1.06 6.854 4.423 7.737l26.86 7.512c3.363.882 6.854-1.059 7.737-4.423l7.512-26.86c.882-3.363-1.059-6.855-4.423-7.737"/><path fill="#42B2C9" fill-rule="evenodd" d="M97.285 170.078c.08-.098.242-.292.535-.244l.86.176c.202.155.303.233.252.516l-.808 2.61c-.081.097-.243.292-.536.243l-.86-.175c-.1-.078-.303-.234-.252-.516zm-.637 4.84c-.394-.136-.92.098-.96.555L91.179 190.9c-.142.38.101.886.576.925l15.052 4.091c.394.136.92-.098.96-.555l4.509-15.427c.141-.38-.101-.886-.576-.925zm4.458-4.178c-.101-.078-.364.039-.536.244l-.809 2.61c-.08.097.04.35.253.516l.859.175c.202.156.364-.039.536-.243l.809-2.61c.081-.098-.041-.351-.253-.517zm2.689 1.412c.141-.38.566-.691.96-.555l1.83.429c.394.136.717.545.576.925l-.607 1.957c-.141.38-.566.692-.96.556l-1.83-.429c-.394-.136-.717-.545-.576-.925zm5.59.731c-.202-.156-.364.039-.536.243l-.809 2.61c-.08.098.041.351.253.516l.96.254c.102.078.364-.039.536-.244l.809-2.61c.081-.097-.041-.351-.253-.516l-.859-.175zm2.749 1.129c.081-.097.243-.292.536-.243l.859.175c.102.078.304.234.253.516l-.809 2.611c-.08.097-.242.292-.535.243l-.86-.175c-.202-.156-.303-.234-.252-.516zm-21.289 19.537c-.1-.078-.364.039-.535.244l-.81 2.61c-.08.097.041.35.254.516l.859.175c.202.156.364-.039.536-.243l.808-2.61c.081-.098-.04-.351-.252-.517zm2.932 1.12c.08-.097.242-.292.536-.243l.96.253c.202.156.303.234.253.516l-.809 2.61c-.08.098-.243.292-.536.244l-.859-.176c-.101-.078-.303-.233-.253-.516l.809-2.61zm4.104.711c-.394-.136-.92.098-.96.555l-.607 1.958c-.141.38.101.886.576.925l1.83.429c.394.136.92-.098.96-.556l.607-1.957c.142-.38-.101-.886-.576-.925zm4.104 1.529c.081-.097.243-.292.536-.243l.859.175c.101.078.304.234.253.516l-.809 2.61c-.081.098-.242.292-.535.244l-.86-.176c-.202-.155-.303-.233-.252-.516zm3.811.653c-.202-.156-.364.039-.536.243l-.808 2.61c-.081.098.04.351.253.516l.859.176c.101.078.364-.039.536-.244l.808-2.61c.081-.097-.04-.35-.253-.516zm8.188-17.453c.081-.097.243-.292.536-.243l2.608.701c.202.156.303.234.253.516l-.263.925c-.081.098-.243.292-.536.244l-2.608-.701c-.101-.078-.303-.234-.253-.517zm-22.623-6.496c-.202-.156-.364.039-.536.244l-.263.925c-.08.097.04.35.253.516l2.608.701c.101.078.364-.039.536-.243l.263-.925c.08-.098-.04-.351-.253-.517zm21.714 9.837c.08-.098.242-.292.535-.244l2.608.701c.202.156.304.234.253.517l-.263.925c-.081.097-.242.292-.536.243l-2.608-.701c-.101-.078-.303-.234-.252-.516zm-22.725-6.574c-.202-.156-.364.039-.536.243l-.262.925c-.081.098.04.351.252.517l2.608.701c.101.078.364-.039.536-.244l.263-.925c.08-.097-.04-.35-.253-.516zm20.278 15.027c.081-.097.243-.292.536-.243l2.608.701c.202.156.303.234.253.516l-.263.925c-.081.098-.243.293-.536.244l-2.608-.701c-.101-.078-.303-.234-.253-.517zm-22.805-6.467c-.202-.155-.364.039-.536.244l-.263.925c-.08.098.04.351.253.516l2.608.702c.101.077.364-.039.536-.244l.263-.925c.08-.098-.04-.351-.253-.516zm21.815 9.905c.08-.097.242-.292.535-.243l2.608.701c.203.156.304.234.253.516l-.263.925c-.081.098-.242.293-.536.244l-2.608-.701c-.101-.078-.303-.234-.252-.517zm-22.725-6.574c-.202-.156-.364.039-.536.244l-.262.925c-.081.097.04.351.252.516l2.608.701c.101.078.364-.039.536-.243l.263-.925c.08-.098-.04-.351-.253-.517zm25.029-1.509c.142-.38.566-.692.961-.555l1.829.428c.395.136.718.545.577.925l-.607 1.958c-.142.38-.566.691-.96.555l-1.83-.429c-.394-.136-.718-.545-.576-.925zm-22.188-6.808c-.395-.136-.92.097-.96.555l-.607 1.958c-.142.38.1.886.576.925l1.83.428c.394.137.92-.097.96-.555l.606-1.957c.142-.38-.1-.886-.576-.925z" clip-rule="evenodd"/><path fill="#069576" d="M452.703 329.189c-9.926-1.094-6.991-4.493-20.753-10.08-13.878-5.587-23.238 3-33.614 2.317 0 0-2.936 1.365-12.746-3.54-9.81-5.034-13.08-8.986-24.924-9.398-11.728-.412-19.401 7.621-31.696 8.304-12.295.54-27.074-6.94-40.154-3.399-13.08 3.399-31.014 9.256-35.649 21.242h224.808c-6.875-6.257-15.346-4.351-25.272-5.304z"/><path fill="#069576" d="M275.19 320.977c-9.926-1.094-6.991-4.493-20.753-10.08-13.879-5.588-23.238 2.999-33.615 2.317 0 0-2.935 1.365-12.745-3.54-9.81-5.034-13.08-8.986-24.924-9.398-11.729-.412-19.401 7.621-31.696 8.303-12.295.541-27.074-6.939-40.155-3.398-13.08 3.398-31.013 9.256-35.648 21.242h224.807c-6.874-6.257-15.346-4.352-25.271-5.304z"/><path fill="#FFD168" d="M414.955 292.13s-.046-.06-.076-.091a100.7 100.7 0 0 0-15.287-19.445c-19.052-18.931-44.242-29.364-70.945-29.364s-51.909 10.418-70.946 29.364a101.6 101.6 0 0 0-11.658 13.836c-13.336 16.073-17.782 45.739-18.069 47.781 0 .075-.015.105-.015.105l21.804 1.074c0-12.837 8.195-27.504 8.195-27.504 3.765-7.394 8.755-14.244 14.848-20.292 15.015-14.924 34.838-23.135 55.841-23.135 21.002 0 40.825 8.211 55.84 23.135a79.7 79.7 0 0 1 14.848 20.292s5.973 12.383 7.651 25.901h22.348s-3.356-26.703-14.364-41.657z"/><path fill="#FFE4A5" d="M445.211 307.024a7.6 7.6 0 0 0-.967-2.117c-16.194-48.038-61.995-82.906-115.597-82.906s-101.293 36.319-116.564 85.9c0 0-3.251 11.446-5.671 26.43h21.532c.937-5.262 3.1-16.073 6.487-25.584.06-.272.136-.559.196-.831 4.99-13.064 12.777-25.085 23.074-35.307 19.052-18.931 44.243-29.364 70.946-29.364s51.909 10.418 70.946 29.364c10.297 10.222 18.084 22.243 23.074 35.307 0 0 5.322 14.652 6.668 26.96h19.657s-.545-16.588-3.765-27.837z"/><path fill="#FC954F" d="M373.98 307.766s.076.09.106.136c2.238 2.585 3.72 5.473 4.688 8.346 2.026 4.627 3.719 10.418 4.46 17.54h23.739c-1.617-14.455-7.651-25.886-7.651-25.886-3.765-7.394-8.754-14.244-14.848-20.292-15.015-14.924-34.838-23.135-55.84-23.135s-40.826 8.211-55.84 23.135a84 84 0 0 0-6.744 7.59c-14.304 15.862-16.3 39.465-16.3 39.465l.075-.076c-.06.53-.075.817-.075.817l24.223.801c0-14.243 7.001-25.614 8.8-28.305h.408a59 59 0 0 1 4.718-5.277c10.977-10.918 25.448-16.92 40.735-16.92s28.699 5.579 39.525 15.74c1.119.907 3.372 2.934 5.821 6.305z"/><path fill="#BAB7AF" d="M234.484 324.162h49.794l-3.235-10.303-6.164-2.017s-2.525-2.622-6.769-4.34a18.9 18.9 0 0 0-9.189-1.21c-4.542.605-9.698 3.033-13.941 5.454-4.744 2.726-8.181 5.356-8.181 5.356l-.911 2.832-1.316 4.139-.104.105z"/><path fill="#9E8989" d="M261.351 312.851c2.622-.202 3.13-.71 3.13-.71l2.122 4.243 14.441-2.622 3.235 10.303h-27.471c2.122-3.534 3.938-7.269 4.647-11.311l-.104.105zM236.71 317.086s3.533-2.727 8.18-5.357c2.324.403 6.261.912 11.013 1.113h2.42c-2.017 4.139-4.849 7.778-7.874 11.214h-12.828l-1.815-4.138.912-2.832zM259.426 312.948h.912c-.807 4.042-2.622 7.777-4.744 11.214h-3.736c3.034-3.437 5.761-7.067 7.673-11.214z"/><path fill="#7D6E76" d="m282.358 317.997-11.82 6.164h13.74zM266.599 324.162v-7.778s-.606-1.008-.606-.605c0 .404-1.815 4.446-3.332 5.252-1.815 1.009-2.831 3.131-2.831 3.131z"/><path fill="#7D6E76" d="m264.479 312.141 1.411 3.638.606.605 14.441-2.622-6.164-2.017s-2.525-2.622-6.769-4.34l-2.727 1.718-.71 2.929-.104.105z"/><path fill="#CEBAAB" d="m480.716 72.044-46.462-12.19c-5.805-1.52-11.738 1.949-13.267 7.75l-12.19 46.461c-1.519 5.805 1.949 11.737 7.75 13.266l46.461 12.19c5.806 1.52 11.738-1.949 13.267-7.749l12.19-46.462c1.52-5.805-1.949-11.737-7.749-13.266" opacity=".39" style="mix-blend-mode:multiply"/><path fill="#F1E8E0" d="M460.178 120.037c11.881-7.013 15.816-22.33 8.803-34.211-7.012-11.881-22.329-15.816-34.21-8.803-11.881 7.012-15.816 22.329-8.804 34.21s22.33 15.816 34.211 8.804"/><path fill="#F1E8E0" d="M441.133 122.701c9.63 2.528 20.281-6.246 23.781-19.589s-1.477-26.208-11.108-28.736-20.281 6.246-23.781 19.589 1.477 26.208 11.108 28.736"/><path fill="#F1E8E0" d="M441.133 122.701c4.143 1.085 10.333-8.851 13.832-22.194s2.98-25.037-1.158-26.131c-4.144-1.085-10.333 8.85-13.832 22.194s-2.98 25.036 1.158 26.131"/><path fill="#F1E8E0" d="M469.708 87.17c-5.357 2.411-12.386 2.966-19.54 1.098-7.158-1.882-13-5.811-16.486-10.54"/><path fill="#fff" d="m478.508 68.489-46.462-12.19c-5.805-1.52-11.737 1.949-13.266 7.749l-12.19 46.462c-1.52 5.805 1.949 11.737 7.749 13.266l46.462 12.19c5.805 1.52 11.738-1.949 13.266-7.749l12.191-46.462c1.519-5.805-1.95-11.738-7.75-13.266"/><path fill="url(#a)" d="m473.254 84.42-6.717 24.906s-.953 3.878-5.181 6.663-8.606 2.089-9.724 1.782l-4.84-1.308 8.076-27.542s1.204-4.14 5.678-6.67c4.262-2.406 8.489-1.011 8.489-1.011l2.869.778s1.902.324 1.35 2.402"/><path fill="url(#b)" d="m435.915 95.444-4.404 16.911-14.154-3.82s-1.679-.491-1.324-1.788l1.367-5.059s.94-3.742 4.708-6.08 7.373-1.81 8.455-1.522c1.081.287 5.362 1.363 5.362 1.363z"/><path fill="url(#c)" d="m447.476 116.656-16.756-4.513 5.191-16.7s.889-4.07 5.614-6.621c3.248-1.755 5.811-1.72 7.908-1.158l5.388 1.449-7.35 27.552z"/><path fill="#B50D31" d="m446.829 116.46.702.189 7.47-28.016-8.167 27.818z" opacity=".61"/><path fill="#C84E28" d="m436.098 94.93-5.345 17.182.787.211z" opacity=".59"/><path stroke="#895A46" stroke-miterlimit="10" stroke-width="1.647" d="m116.205 268.062 20.431-2.909a2.6 2.6 0 0 1 2.948 2.214l1.133 7.982a2.603 2.603 0 0 1-2.215 2.948l-20.431 2.91a2.61 2.61 0 0 1-2.948-2.215l-1.133-7.982a2.603 2.603 0 0 1 2.215-2.948Z"/><path fill="#FA934F" d="m90.672 276.444 72.146-10.647a5.904 5.904 0 0 1 6.707 4.983l7.068 47.853a5.903 5.903 0 0 1-4.982 6.707l-72.146 10.647a5.904 5.904 0 0 1-6.708-4.982l-7.068-47.853a5.904 5.904 0 0 1 4.983-6.708"/><path fill="#FFDD9F" d="m149.388 267.78 4.712-.696 8.793 59.556-4.711.695zM99.389 275.157l4.711-.695 8.793 59.555-4.712.696z"/><path stroke="#DE703C" stroke-miterlimit="10" stroke-width=".105" d="M167.969 268.964c-.27-.824-.025-1.892-.682-2.459-.489-.412-1.197-.322-1.828-.193l-2.24.425M162.237 267.045l-2.459.36"/><path fill="#1287A4" d="m115.878 265.694 20.007-2.922a1.586 1.586 0 0 1 1.802 1.351l.283 1.906a1.586 1.586 0 0 1-1.352 1.802l-20.006 2.923a1.587 1.587 0 0 1-1.802-1.352l-.283-1.906a1.586 1.586 0 0 1 1.351-1.802"/><g fill="#BC5025" opacity=".25" style="mix-blend-mode:multiply"><path d="m88.331 300.999-.117-.752s.013.272.117.752M88.214 300.247s.052.246.195.687z"/><path d="M176.812 320.242s-39.33-.811-62.22-2.562c-20.007-1.532-25.195-13.711-26.186-16.749l1.069 3.72c-.696-1.635-1.018-2.909-1.16-3.656l4.172 28.233s-.154 7.454 6.965 6.759c5.291-.515 37.348-5.356 55.41-8.111 3.785-.347 7.338-.734 10.299-1.146 15.243-2.137 11.638-6.501 11.638-6.501z"/></g><path fill="#97C27D" d="M135.729 320.911c2.704-3.334 8.999-7.197 17.059-6.695 12.436.773 16.981 5.086 25.632 0 8.638-5.072 15.539-9.655 25.22-7.08 9.682 2.575 13.312 8.432 21.603 8.02 6.591-.322 20.508-.36 30.975 5.948 21.41-6.63 44.3 12.758 44.3 12.758l-206.604.193c17.187-22.13 41.828-13.157 41.828-13.157z"/><mask id="d" width="158" height="85" x="359" y="250" maskUnits="userSpaceOnUse" style="mask-type:luminance"><path fill="#fff" d="M516.517 250.696H359.995v83.479h156.522z"/></mask><g mask="url(#d)"><path fill="#B6E3FF" d="m505.297 311.061-56.299.94 43.914.18zM389.069 309.388l-.785 2.163 52.372-.991-51.574-1.185zM425.489 313.328l-7.583.992h57.985z"/><path fill="#B5EBE9" d="M512.827 325.003c4.21 25.362-5.433 49.823-23.38 65.658-9.745 8.6-21.95 14.663-35.712 16.942-39.112 6.476-76.086-19.994-82.575-59.131a72 72 0 0 1-.965-10.827c-.489-34.901 24.576-65.889 60.057-71.76 39.112-6.476 76.086 19.993 82.575 59.131z"/><path fill="#D1FAF8" d="M393.434 290.994h-.013v-.026c1.455-2.948.953-3.926 1.197-7.209.026-.348 1.365-2.42 2.112-3.103 9.32-7.518 20.65-12.809 33.305-14.908 6.115-1.004 12.166-1.223 18.062-.708.026.515-.077 1.069-.322 1.519-.579 1.043-1.609 1.738-2.497 2.536-.889.786-2.691 1.674-1.622 3.039 1.068 1.351 5.986 1.789 8.445 3.656.142.759-.734 1.287-1.455 1.545a103 103 0 0 1-6.45 2.163c-2.317.708-4.789 1.416-6.437 3.192-2.356 2.562-2.381 6.682-4.802 9.18-.837.862-1.892 1.467-2.78 2.253-.902.785-1.674 1.866-1.623 3.051.078 2.085 2.562 3.875 1.738 5.78-1.197.773-3.051.168-3.566-1.171-.231-.605-.219-1.275-.515-1.841-.772-1.468-2.896-1.326-4.506-.927a139 139 0 0 0-9.14 2.562c-.953.296-1.957.643-2.575 1.429-1.159 1.454-.425 3.643-.991 5.42-.206.669-.618 1.313-.554 2.008.039.412.206.785.412 1.146 1.056 1.854 3.051 3.476 5.15 3.064 1.673-.309 2.896-1.841 3.488-3.438.322-.862.67-1.918 1.571-2.098.863-.167 1.622.695 1.764 1.558.142.862-.142 1.725-.283 2.587-.142.863-.103 1.854.515 2.459 1.21 1.172 3.514.078 4.776 1.185.631.553.76 1.48 1.043 2.278.669 1.957 2.922 3.785 4.969 3.798 1.056 0 1.339 1.571 2.305 2.009.321.141.695.154 1.042.103a5.1 5.1 0 0 0 2.343-.863c1.455-.991 2.305-2.626 3.348-4.042s2.587-2.73 4.338-2.562c1.854.18 3.193 1.969 5.021 2.304.94.168 1.88-.051 2.82-.193a14.5 14.5 0 0 1 9.848 2.189c.657.437 1.313.939 2.099 1.081.553.103 1.12.026 1.686-.026 3.541-.257 7.145 1.455 9.205 4.365.631.901 1.159 1.931 2.073 2.549.502.334 1.094.528 1.686.695 3.657 1.056 7.48 1.764 10.789 3.656 1.738.991 4.313 2.421 4.055 4.403-.45 3.566-2.201 6.939-4.815 9.398-.476.438-1.017.914-1.133 1.558-.128.669.245 1.352.245 2.034 0 1.365-1.39 2.266-2.214 3.36-1.326 1.725-1.339 4.094-1.919 6.206-.128.45-.283.888-.592 1.235-.373.4-.901.593-1.39.85-3.631 1.88-4.648 6.759-7.956 9.141-1.017.734-2.343 1.364-2.562 2.613-.168 1.004.515 1.983.515 3.013 0 1.274-1.017 2.317-2.112 2.948-1.094.631-2.343 1.017-3.347 1.802-.927.721-1.571 1.738-2.446 2.498-.798.695-1.751 1.184-2.575 1.841a7.66 7.66 0 0 0-2.536 3.798c-.245.836-.322 1.725-.669 2.51-.348.798-1.88.837-1.893 1.622-.013.773 2.008 2.897 1.12 3.309-.888.425-3.759-2.523-4.557-4.622s-.94-4.377-1.056-6.617c-.322-5.729.541-11.317 1.519-16.968.296-1.7.592-3.438.309-5.137s-1.223-3.399-2.794-4.107c-.991-.45-2.137-.476-3.115-.953-.605-.296-1.094-.759-1.558-1.235-2.021-2.112-3.399-4.764-5.381-6.901-1.313-1.416-2.871-2.588-4.159-4.042-1.274-1.455-2.278-3.296-2.137-5.227.065-.966.541-1.687.502-2.665-.695-.901-.077-2.202.593-3.116 1.055-1.429 2.317-2.768 2.896-4.441.58-1.674.206-3.863-1.351-4.686-1.417-.747-3.168-.103-4.532.746-.322.206-.657.425-1.043.425-.296 0-.579-.129-.837-.27-1.158-.593-2.33-1.198-3.489-1.79-1.467-.746-2.974-1.545-4.016-2.819-.927-1.146-1.519-2.717-2.884-3.283-1.288-.528-2.832.039-4.094-.515-.682-.309-1.197-.901-1.893-1.184-1.171-.477-2.459.064-3.682.347-2.021.464-4.197.167-6.025-.785-2.072-1.095-3.617-2.987-5.098-4.802-1.442-1.777-2.884-3.553-4.313-5.33-.257-.309-.63-.657-1.004-.515-.412.167-.399.734-.322 1.171.129.67.258 1.327.374 1.983-.283.322-.76-.09-.953-.463a27.7 27.7 0 0 1-3.013-10.519c-.064-.888-.09-1.776 0-2.664.245-2.279 1.262-4.403 2.279-6.463h.013z"/><path fill="#9BE5E2" fill-opacity=".5" d="m413.311 329.485-27.576 4.133h127.868c-1.12-33.396-23.472-49.978-23.472-49.978-13.106 40.837-76.807 45.845-76.807 45.845z"/><path fill="#D1FAF8" d="M425.718 309.375c.45.155.927.193 1.403.129a3.3 3.3 0 0 0 1.185-.425c.27-.167.502-.386.824-.476.875-.232 1.699-.09 2.523.27.837.373 1.583.901 2.459 1.172 1.287.412 3.708.141 3.862-.567.167-.708-.348-.785-.747-.953-.412-.167-.849-.18-1.248-.347-.644-.271-1.133-.876-1.803-1.082-.553-.167-1.171-.064-1.673-.347-.181-.103-.348-.271-.554-.335-.206-.077-.425-.051-.644-.013a25 25 0 0 0-3.72.798c-.528.155-1.056.322-1.442.696-.399.36-.618.978-.374 1.454v.026zM446.023 309.13h.013c.425.361.103 1.571 0 1.597-.373.103-.734.206-1.107.309q-1.101.29-2.201.502c-.747.154-1.481.27-2.228.373-.283.039-.566.09-.824-.077-.205-.142-.244-.322.026-.425.296-.116.605-.154.876-.335.219-.154.399-.399.399-.682 0-.36-.283-.759-.039-1.017a.8.8 0 0 1 .335-.142c.772-.154 1.558-.321 2.33-.489.541-.116 1.133-.244 1.661-.051.283.09.528.27.747.45z"/></g><path fill="#97C27D" d="M323.724 325.086c2.399-2.058 7.984-4.44 15.134-4.133 11.033.478 15.065 3.134 22.741 0 7.664-3.134 13.786-5.96 22.375-4.372s11.81 5.209 19.166 4.953c5.848-.197 18.195-.222 27.481 3.671 18.994-4.09 39.302 7.873 39.302 7.873l-183.297.119c15.248-13.67 37.11-8.12 37.11-8.12z"/><path fill="#7CB562" d="m92.099 329.124 12.513-3.85c-.115-.309-.244-.605-.296-.862l-6.437.553 5.781-2.175c-1.198-2.472-2.858-4.751-4.828-6.772l-8.935 5.008 7.75-6.115c-.296-.258-.54-.451-.836-.709l-5.42 2.781 3.99-3.888c-2.741-1.918-5.895-3.334-9.294-4.197l-3.875 5.214 1.364-5.716c-.412-.051-.772-.103-1.197-.154l-3.335 7.377.889-7.532h-.889c-3.81 0-7.39.708-10.66 2.022-.411 2.883-.772 5.561-.772 5.819 0 .257-.592-2.279-1.197-5.008-.296.154-.592.309-.888.45l.592 8.999-2.446-7.892c-2.807 1.816-5.24 4.094-7.145 6.721l1.429 5.716-2.562-3.94a24 24 0 0 0-1.43 2.833l5.19 5.304-5.962-3.142a22.8 22.8 0 0 0-1.017 6.721h53.621c0-1.97-.245-3.85-.721-5.716l-13.054 2.124h.064z"/><path fill="#CDB5A0" d="M535.337 328.957H43.808c-2.58 0-4.67 2.919-4.67 6.521s2.09 6.522 4.67 6.522h491.529c2.58 0 4.671-2.92 4.671-6.522s-2.091-6.521-4.671-6.521"/><ellipse cx="289.567" cy="334.175" fill="#C2A286" rx="36.522" ry="2.609"/><path fill="#004B75" d="M385.603 281.197s2.216 2.574-2.854 8.923-13.732 16.746-17.459 10.972c-3.71-5.773 14.806-23.823 20.296-19.895z"/><path fill="#F68979" d="m370.46 287.886 9.971-10.447 11.986 11.412-10.542 10.142-11.415-11.124z"/><path fill="#FBEAE3" d="M376.807 294.133s3.441-8.872 10.055-10.531c0 0 4.415 4.097 5.557 5.265l-10.626 10.82s-5.171-4.775-4.986-5.554"/><path fill="#2C6BB7" d="M385.405 280.656s-50.378-55.181-59.191-64.375c0 0-16.367-3.522-21.336 5.689-4.969 9.194 0 18.659 4.683 23.535l54.995 54.538c.453-.762 5.472-9.126 11.029-14.358 3.374-3.675 6.983-6.265 9.82-5.029"/><path fill="#1C5C9F" d="m315.518 226.067-.285 24.06s3.643 3.81 4.633 4.656l1.864 1.863s1.863-14.308-6.195-30.579z"/><path fill="#F68979" d="m278.15 295.438-9.418 18.236s4.197 6.163 12.994 2.997l3.508-1.575 10.324-18.693-17.408-.982z"/><path fill="#06AD57" d="M266.012 316.365s3.777-6.163 4.75-8.415c.974-2.252 1.259-2.54 2.132-2.049s10.375 6.163 14.152 5.977l-3.777 7.145s-5.137 2.947-10.962 1.169c-5.825-1.761-6.312-3.827-6.312-3.827z"/><path fill="#2C6BB7" d="m314.983 217.99-27.061.525c-.386 1.795-1.326 8.077-.889 14.545.117 1.794.218 3.555.302 5.266.352 6.637.537 13.714.184 18.472-.604 7.941-12.623 32.273-16.316 39.57.033.051.05.102.067.136 0 0 2.031 3.369 8.393 6.84l1.88.965c.756.356 1.545.728 2.401 1.067 5.523 2.286 9.35 2.608 11.633 2.472 4.801-7.755 18.097-30.054 20.161-42.838 2.535-15.645-.772-47.02-.772-47.02z"/><path fill="#1C5C9F" d="M269.52 299.281s7.286 11.175 24.358 11.446l1.88-3.116s-16.77-.254-24.492-11.835l-1.763 3.505z"/><path fill="#F14851" d="M284.948 317.906c.067-.271.117-.542.184-.796.252-1.676-.906-1.811-1.628-1.761-.772.153-2.014.458-3.105.339-4.315-.406-5.02-2.658-7.252-5.469s-3.593-1.761-4.936-.237c-1.36 1.524-4.465 10.447-4.465 10.447h.05l-.655 2.557 16.955 8.432c1.813.846 20.531-.356 20.531-.356 1.444-15.662-16.636-8.754-15.646-13.19z"/><path fill="#E23C44" d="M284.611 322.105s.722-2.675 2.031-2.946c1.293-.271 1.595.389 1.175.965-.419.575-3.223 2.624-3.189 1.981zM288.911 322.614s.721-2.675 2.031-2.946c1.292-.271 1.595.389 1.175.965-.42.575-3.223 2.624-3.19 1.981zM293.207 323.341s.722-2.675 2.032-2.946c1.292-.271 1.594.39 1.175.965-.42.576-3.223 2.625-3.19 1.981z"/><path fill="#BB6518" d="M262.704 322.274c.923 2.642 16.25 9.973 17.861 10.566h19.121s2.467-.931.973-3.624c-.184.525-14.52.915-18.214.102 0 0-16.619-8.754-17.576-9.854-.251-.271-.319-.644-.302-1.016 0 0-2.753 1.168-1.83 3.809z"/><path fill="#1C5C9F" d="M288.257 226.456s4.901-7.298 12.724-9.059l-13.228.678s-1.024 6.129-.571 9.922l1.091-1.558z"/><path fill="#F14851" d="M408.132 281.502c-3.072-3.268-6.984-2.861-10.761-1.151-4.935 2.218-6.261 6.316-9.031 10.836-1.041 1.694-2.099 1.914-6.53 2.219-4.415.304-5.003 4.571-5.003 4.571s-.117 1.609 1.091 2.997c.806.914 1.88 2.083 2.72 3.099.369.541.738 1.083 1.141 1.625.319.762.722 2.625 1.427 4.25 0 .017.017.051.034.068.218.491.453.965.738 1.371 1.545 1.829 4.18.39 4.18.39l22.344-25.195c-.101-.576-.605-3.014-2.367-5.08z"/><path fill="#5F4400" d="M388.623 311.506c4.08-2.557 5.02-4.944 5.02-4.944s20.329-13.63 16.333-21.622c-3.004-2.946-8.309 2.116-10.458 4.368-.067.068-.117.153-.168.22-5.002 5.266-9.333 12.835-9.333 12.835s-7.974 3.776-6.329 8.567c.05.153.117.271.185.407.419.762 1.645 2.116 4.734.169z"/><path fill="#BB6518" d="M410.782 285.888v-.017c-.118-.711-.504-1.388-1.125-1.795-6.127-3.995-16.804 12.75-20.127 17.864-2.837 1.253-5.641 3.522-6.262 6.806-.168 1.219.118 2.591 1.091 3.336.118.102.319 0 .302-.152.034-1.931 1.108-3.014 2.351-4.233 1.443-1.372 3.34-2.303 4.767-3.742 2.652-3.996 5.557-7.975 8.746-11.531 1.209-1.304 2.401-2.54 3.744-3.522 1.292-.863 4.129-2.472 5.909-1.219 0 0 .218.356.218.66 0 0 .638-1.591.369-2.472z"/><path fill="#E23C44" d="M388.775 290.357c.05-.321-.487-2.573.991-3.132s.755.643.755.643zM392.438 284.397s-.504-1.863 1.662-1.947z"/><path fill="#1C5C9F" d="M365.441 301.059s6.027-10.853 13.363-16.949c0 0 3.895-4.182 7.067-2.912l-3.072-3.539s-4.398.136-10.592 7.095-9.435 13.478-9.435 13.478l2.669 2.81z"/><path fill="#5A4B75" d="m208.954 222.613-.772-1.253c12.12-7.653 19.792-28.581 19.859-28.801l1.376.491c-.017.051-1.981 5.452-5.456 11.734-4.683 8.483-9.719 14.46-15.007 17.795z"/><path fill="#F3B6A7" d="M391.863 155.207s2.317.592 3.442 2.658c1.057 1.964.335 3.353 0 3.996-.554 1.067-2.284 2.049-2.284 2.049l-4.263-7.044 3.088-1.676z"/><path fill="#F3B6A7" d="M374.272 162.522c.302-.169 4.247-2.709 7.05-5.266 2.804-2.54 5.305-3.64 7.437-4.758 2.115-1.117 5.321-3.098 7.05-2.878s.907 2.421-1.343 4.013a508 508 0 0 0-4.146 2.997s3.307 1.506 3.492 4.165c.201 2.658-.89 3.759-3.123 5.604-1.93 1.609-4.683 2.946-4.499.322 0 0-6.261 3.911-6.815 4.419-3.223 2.896-5.254-8.466-5.103-8.618"/><path fill="#E0746A" d="M377.142 166.89s2.434 2.777 5.64 1.964l-3.676 2.489-1.981-4.453z"/><path stroke="#E09491" stroke-linecap="round" stroke-linejoin="round" stroke-width=".386" d="m388.307 157.983 3.626-2.574M382.799 162.996s6.933-3.911 8.192-2.557c1.259 1.372-1.544 4.149-5.003 6.265M390.79 156.833s1.813.66 2.552 2.37c.721 1.66.335 2.997-.084 4.047M391.612 156.003s2.652.914 3.257 3.369"/><path fill="#F14851" d="M274.658 186.87s2.048-10.362-.822-15.34 6.58-9.753 16.652-8.924-15.83 24.264-15.83 24.264"/><path fill="#FFBF00" d="M374.073 161.505s-17.845 6.569-23.032 7.264c-6.329.423-11.164-2.439-17.962-5.385-7.001-3.048-12.339-3.809-12.339-3.809-9.921-.729-10.089 6.806-9.333 11.259.302 1.829.772 3.116.772 3.116l.067-.034c1.427 4.826 4.499 9.245 7.134 9.99 5.624 1.608 18.349 4.216 28.857 4.791 1.763.102 3.475.136 5.07.119 11.113-.203 28.723-12.868 28.723-12.868z"/><path fill="#F4AA0A" d="M311.405 170.835c.303 1.829.773 3.116.773 3.116l.067-.034c1.427 4.825 4.499 9.245 7.134 9.99 5.624 1.608 19.104 4.283 29.612 4.876-9.803-1.558-27.43-19.743-27.43-19.743-.05 0-10.105 1.795-10.156 1.778z"/><path fill="#F9FAF9" d="m371.332 162.454 8.209 15.425 2.904-1.879-8.125-14.85-2.971 1.304z"/><path fill="#590C06" d="M264.282 162.267s4.818 6.892-1.611 11.751c-6.43 4.86-12.255-2.827-12.255-2.827s4.818-9.516 13.866-8.907z"/><path fill="#fff" d="m274.321 309.169.336 6.214 14.118-1.388-.336-5.808-14.118.965z"/><path fill="#7C5E00" d="M309.139 331.688c0-.169 0-.355-.034-.542-1.763-9.583-8.125-7.551-12.338-8.499-3.324-.745-5.238-3.725-6.228-6.011 0-.051-.017-.119-.034-.187-1.024.17-12.741 1.965-15.31 1.389-2.333-.542-2.803-1.727-2.87-2.015a64 64 0 0 0-.336 3.353h.033c-.738 2.946-1.645 6.688-2.249 9.685-.218 1.117-.739 3.691-.839 4.52l8.645 1.016s.436-1.422 1.091-2.743c.588-1.185 1.36-2.302 2.182-2.269.974.017 2.2 1.66 3.912 3.167 1.343 1.185 2.988 2.269 5.019 2.387 1.947.119 11.583-.118 16.636-.237 1.544-.034 2.753-1.422 2.753-2.98z"/><path fill="#FFBF00" d="M275.196 317.838c2.552.593 14.286-1.219 15.31-1.388-.202-1.456.604-3.471-.554-3.488-1.159-.017-6.833.948-9.955 1.185l-1.712.051c-2.099-.101-2.804-.728-4.147-1.168-1.427-.457-1.561.897-1.779 2.421 0 .119-.034.237-.05.356.083.288.537 1.473 2.87 2.015z"/><path fill="#5F4400" d="M289.747 334.906c1.947.118 11.583-.119 16.636-.237 1.544-.034 2.753-1.423 2.753-2.98l-24.425.829c1.343 1.186 2.988 2.269 5.019 2.388zM278.068 332.756h-9.049l-.604 2.895h9.048l.621-2.895z"/><path fill="#BBACA6" d="M293.81 288.664c-2.837-8.601-6.832-23.518-10.374-31.121a2.9 2.9 0 0 0-.471-.745 120 120 0 0 0-6.983-14.443c-2.35-5.028-7.571-13.003-11.482-19.031v.101s-5.741-11.7-21.941-11.496-13.631 19.793-13.631 19.793l-.151.373c.638 8.72 6.094 11.818 8.746 14.951 6.48 6.315 9.669 6.586 14.705 13.156 1.763 3.014 12.843 22.333 13.615 31.07.822 9.499-.823 22.976-.823 22.976s17.408.813 26.658-4.216c9.25-5.011 9.804-10.04 9.804-10.04s-4.835-2.726-7.672-11.328"/><path fill="#A2948F" d="M256.043 265.67s5.59-22.316 1.057-33.237c0 0-2.736 16.17-8.225 22.536 0 0 5.657 7.924 7.168 10.701"/><path fill="#F7F7F8" d="m186.023 275.458-12.372-1.677v15.866c.016 0 14.974 2.048 14.974 2.048z"/><path fill="#D7D7E3" d="M179.559 274.526s5.086 10.633 4.667 16.61l3.609.423-2.602-16.238z"/><path fill="#7C5E00" d="M160.557 312.657c.168 0 .353 0 .537-.05 9.569-2.151 7.605-9.11 8.579-13.783.772-3.674 3.777-5.842 6.06-6.993.05 0 .117-.034.184-.034-.151-1.117-1.83-14.003-1.225-16.83.554-2.591 1.746-3.116 2.031-3.217-1.477-.187-3.341-.305-3.341-.305v.034c-2.921-.762-6.647-1.676-9.619-2.269a42 42 0 0 0-2.954-.491l-2.636 9.194s1.411.44 2.72 1.134c1.175.627 2.266 1.44 2.249 2.354-.033 1.084-1.678 2.472-3.189 4.368-1.192 1.507-2.3 3.336-2.434 5.588-.135 2.15 0 12.75.067 18.32.017 1.71 1.376 2.997 2.938 2.963z"/><path fill="#FFBF00" d="M174.692 274.983c-.604 2.828 1.074 15.696 1.225 16.831 1.444-.254 3.442.592 3.475-.677.034-1.287-.873-7.501-1.091-10.939l-.033-1.879c.117-2.32.772-3.099 1.192-4.589.453-1.574-.873-1.693-2.384-1.913-.118 0-.235-.034-.353-.051-.285.102-1.477.627-2.031 3.217"/><path fill="#5F4400" d="M157.553 291.375c-.134 2.15 0 12.749.067 18.32.017 1.71 1.377 2.997 2.938 2.963l-.587-26.871c-1.192 1.507-2.3 3.336-2.434 5.588zM163.811 269.345v-.118a46 46 0 0 0-2.971-.491l-2.636 9.194s1.411.44 2.72 1.134h.101l2.769-9.719z"/><path fill="#BBACA6" d="M257.637 215.959c-6.866-8.771-21.941-11.564-26.322.627 0 0-.134.406-.319 1.117-.437 1.626-1.226 4.86-1.612 8.534-.134.406-.268.846-.369 1.354 0 0-.42 2.54-1.309 6.231-1.276 5.3-3.526 12.97-6.933 18.913-2.586 3.878-5.876 7.45-10.039 10.126-17.022 10.904-25.533 11.767-25.533 11.767s-4.113 19.98 5.909 29.547c0 0 3.022-4.589 7.034-4.487 4.012.101 31.845-9.906 49.555-33.983a94 94 0 0 0 1.813-2.556c10.559-17.085 8.88-40.468 8.125-47.224z"/><path fill="#A2948F" d="M243.402 224.29c6.195-.915-10.408-5.977-12.405-6.57-.437 1.626-1.226 4.86-1.612 8.534-.134.406-.268.847-.369 1.354 0 0-.42 2.54-1.31 6.231h.068s9.048-8.567 15.628-9.532z"/><path fill="#35B473" d="M278.772 185.837c-6.665-10.871-11.08-15.866-25.903-16.289h-1.326a41 41 0 0 0-3.559-.152c-8.88.067-17.912 6.671-17.912 6.671-.94.762 1.142 12.53 1.125 23.874-.336 3.674-1.343 12.902-3.206 17.795-2.367 6.198-1.813 9.449 4.029 11.768s30.334 2.015 33.809 1.236c.403-.084.822-.186 1.225-.305 0 0 1.243-.321 1.679-.66.789-.491 1.628-1.456 1.981-3.335.017-.187.05-.39.117-.644.235-1.998.588-6.57.89-11.141.185-5.808.168-7.823.151-10.481l1.528 4.114 5.153-4.436 7.001-8.093s-4.264-6.214-6.799-9.973z"/><path fill="#06AD57" d="M270.728 224.983c.05-.203.083-.423.117-.643-.05.254-.084.457-.117.643M266.718 222.68v.153c.285-.085.604-.17.906-.288-.52.152-.906.135-.906.135"/><path fill="#009444" d="M230.543 205.461s6.061-3.928 9.703-19.049l-9.384 5.994s.303 6.942-.302 13.055z"/><path fill="#C15D44" d="M185.92 169.582s16.854 14.003 21.773 14.121c3.072.085 11.616-4.301 11.616-4.301l1.964 5.453 4.331 12.004s-5.338 2.439-11.952 3.861c-2.921.626-6.077 1.083-9.132.965-9.837-.356-25.214-21.554-27.497-25.449-2.283-3.877 2.786-11.649 8.88-6.671z"/><path fill="#AB4A37" d="M221.222 184.872h.05l4.331 12.005s-5.338 2.438-11.952 3.86l-.336-.051c2.451-11.022 7.89-15.814 7.89-15.814z"/><path fill="#C15D44" d="M178.063 177.404s-6.564-3.267-8.662-7.162c-2.099-3.877 6.295-6.603 6.295-6.603l4.868 5.029.924 5.807-3.442 2.913z"/><path fill="#0F0E0C" d="m170.461 170.497 9.837-2.405a1.687 1.687 0 0 0 1.225-2.032l-4.902-20.386a1.67 1.67 0 0 0-2.014-1.236l-9.837 2.405a1.69 1.69 0 0 0-1.226 2.032l4.902 20.386a1.673 1.673 0 0 0 2.015 1.236"/><path fill="#fff" d="m171.251 168.837 7.554-1.846a1.69 1.69 0 0 0 1.226-2.032l-4.315-17.931a1.67 1.67 0 0 0-2.014-1.236l-7.554 1.846a1.69 1.69 0 0 0-1.226 2.032l4.315 17.931a1.67 1.67 0 0 0 2.014 1.236"/><path fill="#F14851" d="m173.398 149.94-5.154 1.22c-.856.203-1.393 1.083-1.192 1.947l1.108 4.707a1.61 1.61 0 0 0 1.93 1.202l5.154-1.219c.856-.203 1.393-1.084 1.192-1.947l-1.108-4.707a1.61 1.61 0 0 0-1.93-1.203M175.565 158.458l-5.17 1.236a1.626 1.626 0 0 0-1.192 1.947l.906 3.86a1.61 1.61 0 0 0 1.931 1.202l5.17-1.236a1.626 1.626 0 0 0 1.192-1.947l-.906-3.86a1.61 1.61 0 0 0-1.931-1.202"/><path fill="#FFBCCD" d="m173.481 148.18-2.837.711a1.435 1.435 0 0 0-1.041 1.727l.302 1.219a1.43 1.43 0 0 0 1.729 1.05l2.837-.711a1.435 1.435 0 0 0 1.041-1.727l-.302-1.219a1.43 1.43 0 0 0-1.729-1.05"/><path stroke="#002438" stroke-linecap="round" stroke-linejoin="round" d="m169.116 147.858 1.998-.491"/><path fill="#C15D44" d="M162.355 155.19c.487-1.168 2.065-1.27 3.693-1.185 1.612.102 3.089 1.185 2.552 1.93s-1.376 1.118-1.376 1.118 2.266.965 1.813 2.015c-.454 1.049-1.209 1.117-1.209 1.117s2.585.897 2.014 1.896c-.57.999-1.359.999-1.359.999s2.131.712 1.661 1.761c-.453 1.05-3.374.712-4.465.271-1.36-.558-.772-2.032-.772-2.032s-2.686-1.794-.688-2.709c0 0-1.763-.762-1.444-1.778.302-.999 1.477-1.083 1.477-1.083s-2.367-1.135-1.88-2.303zM185.251 168.905c-.118-.508-1.444-3.827-1.326-6.79s-2.854-6.705-4.852-7.01c-1.779-.271.118 5.08-.05 6.875s-1.78 4.995-.991 8.703c1.226 5.74 7.202-1.778 7.202-1.778z"/><path fill="#AB4A37" d="M177.797 168.667s-.084.576-.084 1.186c0 .609-3.945-.085-3.945-.085z"/><path stroke="#974507" stroke-linecap="round" stroke-linejoin="round" d="m166.732 157.018-2.35.102M167.239 160.236l-2.098.05M167.827 163.063h-1.998"/><path fill="#C15D44" d="M185.248 168.905s3.391 4.877-.369 8.161c-3.743 3.285-6.832.339-6.832.339s1.762-7.823 7.185-8.5z"/><path fill="#35B473" d="M238.363 171.445c-.94.118-2.602.508-4.448 1.016-2.199.592-4.65 1.354-6.497 2.048-1.662.627-5.472 2.54-8.93 4.318-3.626 1.879-6.883 3.607-6.883 3.607s3.139 13.359 7.151 18.354c0 0 16.535-4.995 19.826-7.179.117-.085.235-.17.352-.271 1.578-.932 2.938-2.117 3.66-3.776 3.172-7.264-2.149-18.422-4.214-18.151z"/><path fill="#009445" d="M228.022 177.253c3.391-1.44 5.691-4.521 5.893-4.792-2.2.592-4.65 1.354-6.497 2.049-1.662.626-5.473 2.539-8.931 4.317 0 0 6.01-.084 9.569-1.591z"/><path fill="#C86050" d="M256.963 170.496c.05-.254.134-.626.235-1.083a342 342 0 0 1 1.427-5.723s-3.526-3.099-6.799-3.793c-2.014-.407-3.928.085-4.902 2.76l-2.971 8.364s4.516 4.047 10.576 4.115c0 0 1.829.135 3.089-.119 0 0-.924-3.098-.638-4.538z"/><path fill="#B74B40" d="M251.56 160.811c-.118.661-1.293 7.704 5.321 9.499.017 0 .084.102.101.102.487-2.083 1.377-5.808 1.377-5.808s-3.526-3.098-6.799-3.793"/><path fill="#F9FAFA" d="M259.985 173.713s0-.136-.083-.508c0-.034 0-.068-.017-.119-.034-.152-.067-.338-.135-.558a.6.6 0 0 0-.033-.17v-.05a6 6 0 0 0-.235-.796l-.051-.203c-.537-1.846-2.283-1.541-2.283-1.541l-.167.728v.017c-.051.203-.101.355-.118.491v.051c-.05.389.067.66.252 1.93.252 1.71-.957 1.981-.957 1.981-5.976 1.27-12.204-3.894-12.204-3.894-2.115-.712-2.199 1.371-2.199 1.371 4.415 5.012 11.6 5.571 14.168 5.52s3.525-.61 4.029-2.337c.151-.525.151-1.185.067-1.879z"/><path fill="#6C1507" d="M204.671 168.43c-2.401-3.301-3.676-10.057-1.494-16.288 2.081-5.926 11.197-10.43 11.197-10.43-4.298-.119-8.075 5.35-9.082 5.469-1.007.118-2.484-2.201 4.667-5.605 7.705-3.657 15.696.83 23.485-.22 5.321-.711 6.799-6.874 14.47-7.704 6.547-.711 8.83 1.93 8.83 1.93 6.446-3.945 12.406-.762 8.629 5.723s-11.835 2.608-11.835 2.608-3.122 20.657-6.782 24.856-11.801 5.994-11.801 5.994-8.31 2.675-16.049 2.167c-2.669-.169-5.271-.728-7.436-1.896-8.461-4.589-7.319-13.867-7.319-13.867-.873 1.523.503 7.263.503 7.263z"/><path fill="#590C06" d="M234.704 168.939c3.76-3.573 6.178-7.264 8.964-11.175 3.089-4.318 8.713-4.386 8.713-4.386l.067.051c-.823 6.367-3.71 13.122-5.691 15.391-3.659 4.199-11.583 6.028-11.583 6.028s-8.309 2.675-16.048 2.167c6.614-.795 11.734-4.097 15.578-8.059z"/><path fill="#C86050" d="M261.899 144.286s4.516 6.23 4.785 11.158c.268 4.927-1.192 13.105-11.835 11.022-10.643-2.065-10.526-10.887-10.526-10.887s4.802-2.726 4.415-9.482c0 0 3.996-.779 4.919-3.251 0 0 3.324 2.862 8.242 1.423z"/><path fill="#AA3530" d="M264.233 153.649c-.571.627-1.36 1.134-2.166 1.49-.167.068-.352 0-.419-.169-.067-.17 0-.373.168-.441 2.014-.88 2.769-2.167 2.602-3.081-.084-.525-.152-.525-.857-.559-.302 0-.671-.034-1.141-.118-1.628-.271-2.837-1.88-2.887-1.948a.346.346 0 0 1 .05-.474c.134-.118.336-.084.453.051 0 0 1.108 1.456 2.485 1.693.419.068.772.085 1.057.102.722.034 1.276.051 1.461 1.1.151.847-.219 1.643-.823 2.32z"/><path fill="#3F0407" d="M256.88 148.536c-.168-.559-.974-.593-.974-.593-1.51-.169-2.803.779-3.273 1.168-.705.508-1.024 1.05-.923 1.389.151.525 1.225.423 2.367.118.688-.186 1.712-.491 2.266-.914h.05c.235-.17.672-.593.504-1.152zM263.21 145.877s-1.611.119-1.846 1.118c-.168.728.571 1.439 1.125 1.236s1.376-.661 1.544-1.016c.168-.356.134-1.473-.823-1.338"/><path fill="#BF0000" d="M262.854 156.917c-1.057-.237-4.079-1.456-6.026-1.93-.873-.221-1.276.558-1.444 1.473a5.9 5.9 0 0 0-.033 1.947c.168 1.168.671 2.218 1.443 2.946.286.271.605.525.991.745.94.559 1.846.66 2.669.457.957-.22 1.813-.863 2.484-1.71 1.427-1.812.991-3.708-.067-3.945z"/><path fill="#FF2F00" d="M255.354 158.424c.167 1.169.671 2.218 1.443 2.946.286.271.605.525.991.746.94.558 1.846.66 2.669.457-1.192-5.215-4.801-4.25-5.12-4.166z"/><path fill="#F5DDE7" d="M258.073 155.308s-1.041-.372-1.629-.372c-.587 0-.839.761-.839.761s4.717 3.116 7.269 1.253l.033-.033-4.851-1.609z"/><path fill="#C86050" d="M244.575 158.594c2.031-.305 3.424-2.269 3.105-4.368s-2.216-3.556-4.247-3.251-3.425 2.269-3.106 4.368 2.216 3.556 4.248 3.251"/><path fill="#AA3530" d="M245.952 154.749c.067-.05.101-.101.118-.118.117-.136.1-.339-.017-.44a.3.3 0 0 0-.437.017c-.033.05-.872.914-2.719.084a.3.3 0 0 0-.403.17c-.067.169 0 .355.168.423 1.897.863 2.971.169 3.307-.119z"/><path fill="#AA3530" d="M243.113 156.511c.117-.102.151-.254.067-.39-.755-1.507.168-2.59.201-2.624.118-.136.101-.339-.016-.44a.31.31 0 0 0-.437 0c-.436.491-1.057 1.828-.285 3.352.084.152.268.22.419.136.017 0 .034-.017.051-.034"/><path fill="#FFBF00" d="M330.609 170.7c-.604-6.011-.991-11.819-19.977-12.242a72 72 0 0 0-4.314.051c-4.297-.051-16.317.135-23.233 6.586-2.451 2.472-4.214 6.028-4.835 11.311-.94 8.025.554 22.367 1.024 29.529-.151 1.981-.654 10.972 2.636 12.326 3.693 1.524 33.037.407 39.768-.406 5.607-.694 6.631-4.385 7.051-9.109.403-2.963.218-6.773.671-9.618.789-5.045 1.796-22.401 1.209-28.412z"/><path fill="#F14851" d="M323.676 160.015c-2.048-1.608-6.228-1.067-6.228-1.067s7.269 3.725 6.026 21.284h3.845s1.762-13.393-3.643-20.217"/><path fill="#F4AA0A" d="m327.854 201.939-33.07.728h-.235l-3.291.068c-6.11-.051-15.88-.813-15.007.101 0 0 3.894 13.207 9.098 13.478 4.936.271 13.329-6.299 15.478-7.586 6.698-.338 13.027-1.117 15.595-1.54 5.641-.965 11.449-5.249 11.449-5.249zM299.134 181.621l5.238 11.581-7.991-.287 2.753-11.277z"/><path fill="#F3B6A7" d="m302.842 149.755-2.367 9.871s2.921 5.672 8.998 5.215c0 0 .99-.101 2.199-.321 1.024-.17 1.813-1.016 1.931-2.066l.94-9.076z"/><path fill="#DE6F64" d="M304.806 151.38s1.847 7.755 8.897 9.617l.773-7.28z"/><path fill="url(#e)" d="M322.669 132.298s-.269 5.046-3.24 5.418c-2.972.373-4.08-5.063-4.08-5.063l7.32-.338z"/><path fill="#F3B6A7" d="M319.481 135.312s1.041 7.179 1.712 10.312c.655 3.132-.755 9.143-5.858 11.158-5.12 2.015-10.761.88-16.233-7.823s5.338-18.269 11.415-17.812 8.158 1.676 8.981 4.182z"/><path fill="url(#f)" d="M319.798 138.208s-1.981-.322-2.417.778c-.437 1.118.57 1.457 1.208 1.389.655-.051 1.864 0 2.115-.694.252-.695-.033-1.473-.906-1.49z"/><path fill="url(#g)" d="M312.277 139.561s-.671-1.219-2.652-.762c-1.964.458-3.038 1.592-2.938 2.218.101.61 1.293.627 2.569.424 1.276-.22 3.575-.728 3.021-1.88"/><path fill="#CE645F" d="M315.569 140.865c.588.491 1.326.83 2.065.999.722.136 1.645.102 2.434.61.89.508.789 1.879.05 2.489-.654.609-1.494.812-2.215 1.117-.135.068-.235-.152-.101-.22.722-.372 1.511-.677 2.031-1.202.52-.491.571-1.439-.05-1.761-.672-.423-1.494-.322-2.267-.508-.839-.203-1.611-.626-2.182-1.304-.134-.152.101-.372.235-.22"/><path fill="#8A2A00" d="M316.441 147.825c-1.041-.254-4.045-1.491-5.976-1.965-.873-.22-1.276.559-1.427 1.457a6.4 6.4 0 0 0-.05 1.947c.168 1.168.654 2.218 1.427 2.946.268.271.604.525.99.745.94.559 1.83.66 2.652.474.957-.22 1.797-.847 2.468-1.693 1.427-1.795.991-3.691-.067-3.928z"/><path fill="#BD5000" d="M308.97 149.263c.168 1.169.654 2.219 1.427 2.947.268.271.604.524.99.745.94.558 1.83.66 2.652.474-1.175-5.215-4.75-4.267-5.069-4.182z"/><path fill="#F2E1EB" d="M311.689 146.199s-1.041-.389-1.612-.389-.822.762-.822.762 4.666 3.149 7.218 1.286l.034-.034-4.801-1.625z"/><path fill="url(#h)" d="M323.994 126.694c-1.712-2.388-5.523-1.389-5.523-1.389s.554-2.675-2.064-3.2-6.447 3.42-6.447 3.42-1.007-2.844-4.264-2.421c-2.4.305-4.012 3.082-4.683 4.504-1.209-.914-4.113-2.117-8.545 2.099-5.842 5.571-1.292 9.432-1.292 9.432s-2.451 6.315 1.981 10.193c4.415 3.877 6.765 1.862 8.595 3.217 0 0 2.014-2.218-.168-5.673.537-.931.587-1.964.957-2.861.906-2.015 2.434-4.538 1.175-7.535 0 0 3.525 2.642 5.489 1.033s1.981-3.471 1.981-3.471 2.652 2.76 8.242.677 6.279-5.638 4.566-8.009z"/><path fill="#F3B6A7" d="M301.699 148.044c1.914-.169 3.324-1.828 3.156-3.691s-1.847-3.234-3.761-3.065c-1.913.17-3.323 1.829-3.156 3.691.168 1.863 1.847 3.234 3.761 3.065"/><path fill="#DE6F64" d="M303.176 144.996c.067-.033.117-.067.117-.067a.264.264 0 0 0 .067-.39c-.1-.118-.268-.152-.402-.05-.051.033-.974.626-2.502-.424a.31.31 0 0 0-.403.068.263.263 0 0 0 .068.389c1.578 1.084 2.686.678 3.055.491z"/><path fill="#DE6F64" d="M300.259 145.979a.28.28 0 0 0 .151-.322c-.403-1.439.638-2.184.688-2.218a.264.264 0 0 0 .067-.39.31.31 0 0 0-.402-.067c-.504.338-1.327 1.371-.907 2.827.05.153.202.237.353.187.016 0 .05 0 .05-.017"/><path fill="#F9FAF9" d="M316.641 161.675c-.218-2.946-2.551-3.708-2.551-3.708l-.302 2.489-.252 1.405c-.504 1.067-1.679 2.218-4.533 2.303-5.489.153-8.326-5.435-8.326-5.435l.101-.339c-1.679.288-3.744.678-3.861.695 2.618 5.435 6.446 8.347 12.17 8.415 5.842.067 7.806-2.879 7.571-5.825z"/><path fill="#F3B6A7" d="M313.404 193.303s2.955-3.911 3.895-5.621c.94-1.727 2.216-3.065 3.374-1.879 1.159 1.202.067 4.097-.403 5.435-.486 1.337-6.866 2.065-6.866 2.065"/><path fill="#0F0E0C" d="m329.181 202.786-8.796-.593c-1.461-.102-2.535-1.405-2.367-2.878l2.585-22.012c.168-1.371 1.343-2.37 2.703-2.269l8.796.593c1.461.101 2.535 1.405 2.367 2.878l-2.585 22.012c-.168 1.371-1.343 2.37-2.703 2.269"/><path fill="#D5E9E9" d="M323.391 179.843c.671 0 1.208-.542 1.208-1.219a1.209 1.209 0 1 0-2.417 0c0 .677.537 1.219 1.209 1.219M323.039 183.263a1.21 1.21 0 0 0 1.209-1.219 1.21 1.21 0 1 0-2.418 0c0 .677.537 1.219 1.209 1.219"/><path fill="url(#i)" d="M323.221 201.956c-.201.068-.369.119-.47.187.168-.051.336-.119.47-.187"/><path fill="#F3B6A7" d="M330.191 194.505s1.998-.558 2.065-1.76c.084-1.389-1.846-1.778-1.846-1.778s1.292-.458 1.443-1.27c.151-.83-1.225-1.693-2.82-1.406-.99.187-3.374.339-5.355.491-2.115.136-4.264.221-4.264.221-1.695.118-2.854 1.828-3.122 2.268l-7.185 3.929 1.376 8.059s10.358-.254 14.941-1.287c4.599-1.032 5.355-2.37 5.355-2.37 1.209-1.575-.923-2.015-.923-2.015s2.132-.152 2.098-1.676c-.017-1.439-1.746-1.389-1.746-1.389z"/><path fill="#E0746A" d="M309.827 200.042s3.106 2.912 7.286 2.912l-6.665.305z"/><path stroke="#CE645F" stroke-linecap="round" stroke-linejoin="round" stroke-width=".386" d="M321.894 192.051c.202.068 3.912.576 8.092-1.101M321.961 195.403c.202.068 3.912.576 8.092-1.101M322.03 198.756c.202.067 3.626.711 7.823-.965"/><path fill="#F14851" d="M289.967 160.337s7.185 3.454 5.943 21.013h3.844s2.031-15.442-4.969-21.622c-.453-.407-.772-.407-1.36-.271z"/><path fill="#C86050" d="M300.848 175.813c-.118-.694-.739-1.016-1.293-.948-.89-.254-3.089 3.979-3.441 4.656-1.125-1.05-4.13-4.047-5.725-5.012-.57-.44-.973-.541-1.51-.271-.823.407.134 2.151.134 2.151-.688-1.033-1.931-1.998-2.736-1.389-.823.627.554 2.693.554 2.693s-.403-.407-.957-.695c-.554-.271-1.511.339-.756 1.998.756 1.66 2.602 4.487 2.602 4.487s-2.048-2.692-2.736-2.827c0 0-1.376-.271-.89 1.456.487 1.727 4.382 7.602 4.382 7.602.487.661 2.031 2.879 4.717 3.641 1.024.372 2.317.575 3.609.203 1.377-.407 2.266-.915 2.804-1.355.184-2.76.402-8.279.402-8.279 0-.17.017-.339.051-.492 0-.169.033-.321.05-.457.067-.491.168-.999.235-1.524.252-1.253.705-4.588.521-5.621z"/><path fill="#AA3530" d="M290.251 177.541c1.746 1.54 3.374 3.166 4.583 5.181a.31.31 0 0 1-.117.423c-.135.085-.303.034-.403-.085-.655-.897-1.41-1.777-2.149-2.624-.722-.88-1.494-1.727-2.182-2.641-.135-.17.1-.407.268-.254M287.954 178.623c1.846 2.032 3.575 4.115 4.935 6.519.084.169.034.356-.134.44a.323.323 0 0 1-.437-.118c-1.242-1.964-3.34-4.623-4.733-6.536-.185-.237.167-.542.369-.322zM287.871 183.213c1.208 1.286 2.316 2.658 3.223 4.182.084.152.033.338-.118.406a.33.33 0 0 1-.386-.068c-1.058-1.354-2.149-2.793-3.089-4.249-.151-.221.168-.475.353-.271z"/><path fill="#C86050" d="M299.705 188.292c-2.501-2.929-11.197 5.689-11.197 5.689l-3.643 3.133-11.448 9.753s.587 2.15 1.812 4.673c4.029 9.092 8.125 10.278 11.869 8.11 4.314-2.489 5.556-5.909 8.545-12.445 2.971-6.535 3.928-15.001 3.928-15.001-.084-.051-.168-.102-.235-.153.251-1.913.335-3.319.352-3.742z"/><path fill="#B74B40" d="M279.29 204.394c3.19 11.259 13.061 9.583 13.061 9.583 3.39-5.604 5.573-13.359 5.573-13.359l-18.634 3.759z"/><path fill="#009444" d="M271.888 204.208s-.622-13.072-2.149-17.829c0 0 4.415 4.656 7.923 19.285l-4.23 2.658-1.528-4.114z"/><path fill="#FFBF00" d="M312.78 191.712c-6.9-.745-24.728-1.287-27.044-1.524-.554-.22-1.058-.559-1.528-.999-1.208-1.541-2.149-4.115-2.87-6.874v-.102c-.202-3.183 8.561-11.124 12.137-14.375a9 9 0 0 0 1.024-1.118c-.034-.118-1.813-5.079-4.264-6.451-3.677 1.05-8.075 3.166-11.029 7.501-5.893 8.703-6.849 24.196-7.135 28.209-.268 4.013 1.108 11.192 8.645 11.886 7.538.694 32.198-2.726 32.198-2.726l-.134-13.41z"/><path fill="#F9FAF9" d="m312.78 191.374.134 13.749-3.492.406v-14.24l3.358.068z"/><path fill="#7D669C" d="M245.433 184.685c-.487-4.91-3.794-10.633-9.3-10.396-.168 0-.168.271 0 .271 4.935.694 7.319 5.791 7.705 10.329.621 5.926-1.88 11.75-4.986 16.948-1.007 1.694-2.098 3.319-3.156 4.86-.554.762-1.108 1.507-1.679 2.252-7.268 9.431-16.585 17.304-27.127 22.739a.734.734 0 0 0-.336.966.73.73 0 0 0 .973.355c5.909-2.811 11.416-6.485 16.385-10.752 3.659-3.081 7.99-7.501 11.834-12.529a64 64 0 0 0 4.701-6.976c3.525-6.028 5.741-12.411 4.986-18.084z"/><path fill="#5A4B75" d="M240.094 199.687c-.252.576-1.226 2.167-1.226 2.167-1.007 1.693-2.098 3.319-3.156 4.86-.554.762-1.108 1.507-1.678 2.252h.134s1.007.558 1.595.795a64 64 0 0 0 4.7-6.976c.671-.948 1.225-2.302 1.225-2.302z"/><path fill="#7D669C" d="M242.074 200.567c-1.007 1.744-1.343 4.115-2.199 5.74-.604 1.169-2.451.288-1.847-.88 1.041-1.998 1.461-4.318 2.569-6.146l1.477 1.303z"/><path fill="#F7CB53" d="m239.605 198.452.604-1.44a.946.946 0 0 1 1.259-.508l1.897.864a.96.96 0 0 1 .504 1.27l-.605 1.439a.945.945 0 0 1-1.259.508l-1.897-.863a.96.96 0 0 1-.503-1.27m1.712-1.101s-.05 0-.05.017l-.605 1.439s0 .051.017.051l1.494.66s.051 0 .051-.017l.604-1.439s0-.051-.017-.051z"/><path fill="#5A4475" d="m224.162 229.504-2.988 5.808c-3.593 5.164-11.365 5.909-16.485 2.269-5.12-3.624-7.067-11.26-3.475-16.408l4.398-4.791 18.533 13.122z"/><path fill="#7D669C" d="m225.337 227.625-.655 1.151c-3.827 5.503-11.616 6.553-16.77 1.998-4.382-3.877-4.919-10.565-1.578-15.374a2.516 2.516 0 0 1 3.441-.677l14.756 9.532a2.537 2.537 0 0 1 .823 3.387z"/><ellipse cx="170.872" cy="332.871" fill="#C2A286" fill-opacity=".6" rx="19.565" ry="1.304"/><ellipse cx="391.752" cy="333.197" fill="#C2A286" fill-opacity=".6" rx="13.478" ry=".899"/><defs><linearGradient id="a" x1="464.189" x2="456.212" y1="76.856" y2="122.175" gradientUnits="userSpaceOnUse"><stop offset=".04" stop-color="#A85585"/><stop offset=".38" stop-color="#B74A6F"/><stop offset=".8" stop-color="#E1434D"/></linearGradient><linearGradient id="b" x1="432.661" x2="421.063" y1="92.102" y2="112.896" gradientUnits="userSpaceOnUse"><stop offset=".19" stop-color="#FFE165"/><stop offset=".4" stop-color="#FFC907"/><stop offset=".68" stop-color="#F3903F"/><stop offset=".94" stop-color="#ED6949"/></linearGradient><linearGradient id="c" x1="443.333" x2="442.216" y1="80.963" y2="119.779" gradientUnits="userSpaceOnUse"><stop offset=".11" stop-color="#CF5C6C"/><stop offset=".3" stop-color="#F2685F"/><stop offset=".91" stop-color="#F08541"/></linearGradient><linearGradient id="e" x1="315.685" x2="322.939" y1="135.396" y2="134.464" gradientUnits="userSpaceOnUse"><stop offset=".2" stop-color="#260D02"/><stop offset=".8" stop-color="#260401"/><stop offset="1" stop-color="#260001"/></linearGradient><linearGradient id="f" x1="480.517" x2="477.383" y1="53.514" y2="55.151" gradientUnits="userSpaceOnUse"><stop offset=".2" stop-color="#260D02"/><stop offset=".8" stop-color="#260401"/><stop offset="1" stop-color="#260001"/></linearGradient><linearGradient id="g" x1="132.975" x2="138.67" y1="179.571" y2="178.322" gradientUnits="userSpaceOnUse"><stop offset=".2" stop-color="#260D02"/><stop offset=".8" stop-color="#260401"/><stop offset="1" stop-color="#260001"/></linearGradient><linearGradient id="h" x1="289.463" x2="324.8" y1="137.293" y2="137.293" gradientUnits="userSpaceOnUse"><stop offset=".2" stop-color="#260D02"/><stop offset=".8" stop-color="#260401"/><stop offset="1" stop-color="#260001"/></linearGradient><linearGradient id="i" x1="299.115" x2="329.801" y1="202.058" y2="202.058" gradientUnits="userSpaceOnUse"><stop stop-color="#FFAFA0"/><stop offset="1" stop-color="#FDB9AB"/></linearGradient></defs></svg>